<?xml version="1.0" encoding="UTF-8"?>
<svg version="1.1" xmlns="http://www.w3.org/2000/svg" width="48" height="48">
<path d="M0 0 C2.4375 0.8125 2.4375 0.8125 4.4375 2.8125 C4.66305081 5.34042663 4.76188591 7.72305576 4.75 10.25 C4.76611328 10.93126953 4.78222656 11.61253906 4.79882812 12.31445312 C4.80170411 15.25083679 4.76849869 17.31649016 3.11328125 19.796875 C1.4375 20.8125 1.4375 20.8125 -1.6875 20.625 C-2.63625 20.356875 -3.585 20.08875 -4.5625 19.8125 C-6.07179383 16.79391234 -5.78760073 13.68349046 -5.8125 10.375 C-5.833125 9.69373047 -5.85375 9.01246094 -5.875 8.31054688 C-5.89820505 5.34900216 -5.90605189 3.31545205 -4.20703125 0.828125 C-2.5625 -0.1875 -2.5625 -0.1875 0 0 Z " fill="#1D88E5" transform="translate(24.5625,8.1875)"/>
<path d="M0 0 C1.32 0 2.64 0 4 0 C5.6875 2.4375 5.6875 2.4375 7 5 C7.33 5.33 7.66 5.66 8 6 C11.44892109 5.98407238 11.44892109 5.98407238 15 5 C16.69882448 2.50240018 16.69882448 2.50240018 18 0 C19.32 0 20.64 0 22 0 C21.68416552 3.47417927 21.36514364 5.53412708 19.1875 8.3125 C17.03073916 9.97628694 15.66627187 10.61910402 13 11 C13 12.65 13 14.3 13 16 C11.68 16 10.36 16 9 16 C9 14.35 9 12.7 9 11 C8.2575 10.773125 7.515 10.54625 6.75 10.3125 C3.4159936 8.72126967 1.98743641 7.09156776 0 4 C0 2.68 0 1.36 0 0 Z " fill="#E43933" transform="translate(13,24)"/>
<path d="M0 0 C1.32 0 2.64 0 4 0 C4.66 1.65 5.32 3.3 6 5 C4.02 5.99 4.02 5.99 2 7 C0 4 0 4 0 0 Z " fill="#FBC02C" transform="translate(13,24)"/>
<path d="M0 0 C1.32 0 2.64 0 4 0 C4 1.65 4 3.3 4 5 C2.68 5 1.36 5 0 5 C0 3.35 0 1.7 0 0 Z " fill="#4BAF4F" transform="translate(22,35)"/>
</svg>
