<?xml version="1.0" standalone="no"?>
<!DOCTYPE svg PUBLIC "-//W3C//DTD SVG 20010904//EN"
 "http://www.w3.org/TR/2001/REC-SVG-20010904/DTD/svg10.dtd">
<svg version="1.0" xmlns="http://www.w3.org/2000/svg"
 width="48.000000pt" height="48.000000pt" viewBox="0 0 48.000000 48.000000"
 preserveAspectRatio="xMidYMid meet">

<g transform="translate(0.000000,48.000000) scale(0.100000,-0.100000)"
fill="#000000" stroke="none">
<path d="M216 377 c-24 -18 -20 -155 7 -171 12 -8 22 -8 35 0 26 16 30 153 6
171 -10 7 -21 13 -24 13 -3 0 -14 -6 -24 -13z"/>
<path d="M312 216 c-6 -14 -23 -33 -38 -42 -22 -15 -31 -16 -56 -6 -37 14 -59
4 -33 -15 34 -24 93 -16 126 16 16 16 29 39 29 50 0 28 -14 26 -28 -3z"/>
</g>
</svg>
