<?xml version="1.0" standalone="no"?>
<!DOCTYPE svg PUBLIC "-//W3C//DTD SVG 20010904//EN"
 "http://www.w3.org/TR/2001/REC-SVG-20010904/DTD/svg10.dtd">
<svg version="1.0" xmlns="http://www.w3.org/2000/svg"
 width="24.000000pt" height="24.000000pt" viewBox="0 0 24.000000 24.000000"
 preserveAspectRatio="xMidYMid meet">

<g transform="translate(0.000000,24.000000) scale(0.100000,-0.100000)"
fill="#000000" stroke="none">
<path d="M29 211 c-37 -38 -39 -88 -5 -128 21 -24 32 -28 74 -28 42 0 56 -5
80 -28 26 -25 30 -26 42 -12 11 13 9 20 -11 41 -19 21 -24 36 -24 81 0 48 -4
58 -28 79 -40 34 -90 32 -128 -5z m109 -23 c16 -16 16 -70 0 -86 -16 -16 -70
-16 -86 0 -16 16 -16 70 0 86 7 7 26 12 43 12 17 0 36 -5 43 -12z"/>
</g>
</svg>
